<svg width="336" height="61" viewBox="0 0 336 61" fill="none" xmlns="http://www.w3.org/2000/svg">
<g clip-path="url(#clip0_2489_2196)" filter="url(#filter0_d_2489_2196)">
<path d="M32.4487 34.7367C33.1201 33.242 34.8384 33.3533 35.9733 31.5326C38.8984 26.8336 35.8054 19.2645 30.4507 18.207H0.543945V52.0695H32.8403C33.4398 52.0695 38.5388 47.5296 39.0183 46.3528C41.2321 40.9304 38.8824 34.4823 32.4487 34.7367ZM6.9217 24.5041H30.0511C31.146 26.126 31.0661 31.5962 28.8522 31.5962H6.9217V24.5041ZM31.2499 45.7724H6.9217V37.8932H30.4507C33.192 37.8932 34.3668 45.7724 31.2499 45.7724Z" fill="white"/>
<path d="M231.837 18.207V52.0695H225.451V30.0219C223.573 29.521 224.109 30.499 223.629 31.0237C219.449 35.659 215.629 40.7396 211.737 45.6055C210.226 46.2097 208.852 45.8122 207.461 45.0171C205.031 43.6337 198.43 34.1881 195.801 31.3497C195.089 30.5785 195.097 29.6562 193.555 30.0219V52.0695H187.169V18.207L193.387 18.374L209.115 37.9011L225.811 18.9465L231.837 18.207Z" fill="white"/>
<path d="M176.005 16.6334V52.07H170.426V20.9586L155.561 7.23552L140.911 20.1715V52.07H134.533V17.8101L152.436 0.843077C153.131 0.222915 153.97 0.0559484 154.873 0.0082436C160.971 -0.317739 170.09 14.4548 176.005 16.6334Z" fill="white"/>
<path d="M54.7793 24.5041V31.5962H73.9206V37.8932H54.7793V45.7724H81.0976V52.0695H48.3936V18.207H81.0976V24.5041H54.7793Z" fill="white"/>
<path d="M248.581 24.5041V31.5962H267.722V37.8932H248.581V45.7724H274.899V52.0695H242.203V18.207H274.899V24.5041H248.581Z" fill="white"/>
<path d="M310.148 35.291L326.844 52.1069C324.039 51.7571 319.811 52.8384 317.285 51.7094C314.04 50.2544 308.989 41.6675 304.913 40.2761C302.468 40.2761 295.219 50.5088 292.533 51.7094C290.008 52.8384 285.788 51.7571 282.983 52.1069L299.67 35.291L282.184 18.2604C284.989 18.6102 289.209 17.5289 291.734 18.6579C293.381 19.3973 299.862 26.7518 302.588 28.819C303.483 29.5107 303.93 31.4269 306.08 30.4887C308.869 29.2722 315.831 19.2383 318.636 18.4114C321.153 17.672 324.926 18.5863 327.643 18.2604L310.148 35.291Z" fill="white"/>
<path d="M114.976 52.8486C99.7507 54.1923 81.6005 46.5515 88.1061 28.6782C92.6856 16.108 112.266 15.0107 123.328 18.2388L123.36 25.2911C114.968 21.3714 98.0484 21.6417 94.0683 31.4053C87.7065 47.0365 113.697 49.4059 123.36 44.1981C124.526 51.5844 121.577 52.2602 114.976 52.8486Z" fill="white"/>
</g>
<defs>
<filter id="filter0_d_2489_2196" x="0.543945" y="0" width="335" height="61" filterUnits="userSpaceOnUse" color-interpolation-filters="sRGB">
<feFlood flood-opacity="0" result="BackgroundImageFix"/>
<feColorMatrix in="SourceAlpha" type="matrix" values="0 0 0 0 0 0 0 0 0 0 0 0 0 0 0 0 0 0 127 0" result="hardAlpha"/>
<feOffset dx="4" dy="4"/>
<feGaussianBlur stdDeviation="2"/>
<feComposite in2="hardAlpha" operator="out"/>
<feColorMatrix type="matrix" values="0 0 0 0 0 0 0 0 0 0 0 0 0 0 0 0 0 0 0.3 0"/>
<feBlend mode="normal" in2="BackgroundImageFix" result="effect1_dropShadow_2489_2196"/>
<feBlend mode="normal" in="SourceGraphic" in2="effect1_dropShadow_2489_2196" result="shape"/>
</filter>
<clipPath id="clip0_2489_2196">
<rect width="327" height="53" fill="white" transform="translate(0.543945)"/>
</clipPath>
</defs>
</svg>
